%TF.GenerationSoftware,KiCad,Pcbnew,9.0.6*%
%TF.CreationDate,2025-12-27T01:17:39+02:00*%
%TF.ProjectId,StrikaballMultifunctionalDevice,53747269-6b61-4626-916c-6c4d756c7469,rev?*%
%TF.SameCoordinates,Original*%
%TF.FileFunction,Copper,L2,Bot*%
%TF.FilePolarity,Positive*%
%FSLAX46Y46*%
G04 Gerber Fmt 4.6, Leading zero omitted, Abs format (unit mm)*
G04 Created by KiCad (PCBNEW 9.0.6) date 2025-12-27 01:17:39*
%MOMM*%
%LPD*%
G01*
G04 APERTURE LIST*
G04 Aperture macros list*
%AMRoundRect*
0 Rectangle with rounded corners*
0 $1 Rounding radius*
0 $2 $3 $4 $5 $6 $7 $8 $9 X,Y pos of 4 corners*
0 Add a 4 corners polygon primitive as box body*
4,1,4,$2,$3,$4,$5,$6,$7,$8,$9,$2,$3,0*
0 Add four circle primitives for the rounded corners*
1,1,$1+$1,$2,$3*
1,1,$1+$1,$4,$5*
1,1,$1+$1,$6,$7*
1,1,$1+$1,$8,$9*
0 Add four rect primitives between the rounded corners*
20,1,$1+$1,$2,$3,$4,$5,0*
20,1,$1+$1,$4,$5,$6,$7,0*
20,1,$1+$1,$6,$7,$8,$9,0*
20,1,$1+$1,$8,$9,$2,$3,0*%
G04 Aperture macros list end*
%TA.AperFunction,ComponentPad*%
%ADD10RoundRect,0.249999X-1.250001X1.250001X-1.250001X-1.250001X1.250001X-1.250001X1.250001X1.250001X0*%
%TD*%
%TA.AperFunction,ComponentPad*%
%ADD11C,3.000000*%
%TD*%
%TA.AperFunction,ComponentPad*%
%ADD12C,1.600000*%
%TD*%
%TA.AperFunction,ComponentPad*%
%ADD13O,2.900000X1.700000*%
%TD*%
%TA.AperFunction,ComponentPad*%
%ADD14R,1.800000X1.800000*%
%TD*%
%TA.AperFunction,ComponentPad*%
%ADD15C,1.800000*%
%TD*%
%TA.AperFunction,ComponentPad*%
%ADD16R,0.850000X0.850000*%
%TD*%
%TA.AperFunction,ComponentPad*%
%ADD17C,0.850000*%
%TD*%
%TA.AperFunction,ComponentPad*%
%ADD18C,2.000000*%
%TD*%
%TA.AperFunction,ComponentPad*%
%ADD19RoundRect,0.250000X0.650000X0.650000X-0.650000X0.650000X-0.650000X-0.650000X0.650000X-0.650000X0*%
%TD*%
%TA.AperFunction,ComponentPad*%
%ADD20R,1.500000X1.500000*%
%TD*%
%TA.AperFunction,ComponentPad*%
%ADD21C,1.500000*%
%TD*%
%TA.AperFunction,ComponentPad*%
%ADD22RoundRect,0.250000X-0.550000X0.550000X-0.550000X-0.550000X0.550000X-0.550000X0.550000X0.550000X0*%
%TD*%
%TA.AperFunction,Conductor*%
%ADD23C,0.200000*%
%TD*%
G04 APERTURE END LIST*
D10*
%TO.P,BT1,1,+*%
%TO.N,+3.6V*%
X190500000Y-59550000D03*
D11*
%TO.P,BT1,2,-*%
%TO.N,GNDBT*%
X190500000Y-132450000D03*
%TD*%
D12*
%TO.P,R5,1*%
%TO.N,+3.6V*%
X190660000Y-54500000D03*
%TO.P,R5,2*%
%TO.N,Net-(SW3-A)*%
X180500000Y-54500000D03*
%TD*%
D13*
%TO.P,SW3,1,A*%
%TO.N,Net-(SW3-A)*%
X164330000Y-57500000D03*
X176830000Y-57500000D03*
%TO.P,SW3,2,B*%
%TO.N,+3.3V*%
X164330000Y-62500000D03*
X176830000Y-62500000D03*
%TD*%
D14*
%TO.P,D4,1,K*%
%TO.N,Net-(D1-K)*%
X145500000Y-131500000D03*
D15*
%TO.P,D4,2,A*%
%TO.N,/LED4*%
X148040000Y-131500000D03*
%TD*%
D12*
%TO.P,R3,1*%
%TO.N,/Igniter*%
X137500000Y-77500000D03*
%TO.P,R3,2*%
%TO.N,+3.6V*%
X137500000Y-67340000D03*
%TD*%
D16*
%TO.P,U1,1,VCC*%
%TO.N,Net-(Q1-D)*%
X138500000Y-51500000D03*
D17*
%TO.P,U1,2,GND*%
%TO.N,GNDBT*%
X139500000Y-51500000D03*
%TD*%
D12*
%TO.P,R2,1*%
%TO.N,Net-(U2-IO10)*%
X139000000Y-97080000D03*
%TO.P,R2,2*%
%TO.N,+3.3V*%
X139000000Y-86920000D03*
%TD*%
%TO.P,R1,1*%
%TO.N,Net-(D1-K)*%
X164920000Y-137500000D03*
%TO.P,R1,2*%
%TO.N,GND*%
X175080000Y-137500000D03*
%TD*%
D18*
%TO.P,SW1,1,1*%
%TO.N,GND*%
X127250000Y-94250000D03*
X133750000Y-94250000D03*
%TO.P,SW1,2,2*%
%TO.N,Net-(U2-IO9)*%
X127250000Y-98750000D03*
X133750000Y-98750000D03*
%TD*%
D14*
%TO.P,D1,1,K*%
%TO.N,Net-(D1-K)*%
X173000000Y-131500000D03*
D15*
%TO.P,D1,2,A*%
%TO.N,/LED1*%
X175540000Y-131500000D03*
%TD*%
D16*
%TO.P,U3,1,VCC*%
%TO.N,Net-(Q2-D)*%
X131000000Y-51500000D03*
D17*
%TO.P,U3,2,GND*%
%TO.N,GNDBT*%
X132000000Y-51500000D03*
%TD*%
D12*
%TO.P,R6,1*%
%TO.N,Net-(U2-IO9)*%
X143500000Y-97000000D03*
%TO.P,R6,2*%
%TO.N,+3.3V*%
X143500000Y-86840000D03*
%TD*%
D16*
%TO.P,U4,1,VIN*%
%TO.N,+3.3V*%
X127000000Y-85000000D03*
D17*
%TO.P,U4,2,GND*%
%TO.N,GND*%
X127000000Y-86000000D03*
%TO.P,U4,3,Data*%
%TO.N,/PIR*%
X127000000Y-87000000D03*
%TD*%
D18*
%TO.P,SW2,1,1*%
%TO.N,GND*%
X133750000Y-108750000D03*
X127250000Y-108750000D03*
%TO.P,SW2,2,2*%
%TO.N,Net-(U2-IO10)*%
X133750000Y-104250000D03*
X127250000Y-104250000D03*
%TD*%
D14*
%TO.P,D6,1,K*%
%TO.N,Net-(D1-K)*%
X151000000Y-131500000D03*
D15*
%TO.P,D6,2,A*%
%TO.N,/LED6*%
X153540000Y-131500000D03*
%TD*%
D19*
%TO.P,D7,1,K*%
%TO.N,GNDBT*%
X190580000Y-137500000D03*
D15*
%TO.P,D7,2,A*%
%TO.N,GND*%
X180420000Y-137500000D03*
%TD*%
D14*
%TO.P,D3,1,K*%
%TO.N,Net-(D1-K)*%
X162000000Y-131500000D03*
D15*
%TO.P,D3,2,A*%
%TO.N,/LED3*%
X164540000Y-131500000D03*
%TD*%
D14*
%TO.P,D2,1,K*%
%TO.N,Net-(D1-K)*%
X167500000Y-131500000D03*
D15*
%TO.P,D2,2,A*%
%TO.N,/LED2*%
X170040000Y-131500000D03*
%TD*%
D14*
%TO.P,D5,1,K*%
%TO.N,Net-(D1-K)*%
X156500000Y-131500000D03*
D15*
%TO.P,D5,2,A*%
%TO.N,/LED5*%
X159040000Y-131500000D03*
%TD*%
D20*
%TO.P,U2,1,3V3*%
%TO.N,+3.3V*%
X148070000Y-79005000D03*
D21*
%TO.P,U2,2,EN*%
%TO.N,unconnected-(U2-EN-Pad2)*%
X148070000Y-81545000D03*
%TO.P,U2,3,IO4*%
%TO.N,/LED5*%
X148070000Y-84085000D03*
%TO.P,U2,4,IO5*%
%TO.N,/LED6*%
X148070000Y-86625000D03*
%TO.P,U2,5,IO6*%
%TO.N,/Igniter*%
X148070000Y-89165000D03*
%TO.P,U2,6,IO7*%
%TO.N,/Siren*%
X148070000Y-91705000D03*
%TO.P,U2,7,IO8*%
%TO.N,/PIR*%
X148070000Y-94245000D03*
%TO.P,U2,8,IO9*%
%TO.N,Net-(U2-IO9)*%
X148070000Y-96785000D03*
%TO.P,U2,9,GND*%
%TO.N,GND*%
X148070000Y-99325000D03*
%TO.P,U2,10,IO10*%
%TO.N,Net-(U2-IO10)*%
X148070000Y-101865000D03*
%TO.P,U2,11,IO20/RXD*%
%TO.N,unconnected-(U2-IO20{slash}RXD-Pad11)*%
X148070000Y-104405000D03*
%TO.P,U2,12,IO21/TXD*%
%TO.N,unconnected-(U2-IO21{slash}TXD-Pad12)*%
X148070000Y-106945000D03*
%TO.P,U2,13,IO18*%
%TO.N,unconnected-(U2-IO18-Pad13)*%
X148070000Y-109485000D03*
%TO.P,U2,14,IO19*%
%TO.N,unconnected-(U2-IO19-Pad14)*%
X148070000Y-112025000D03*
%TO.P,U2,15,IO3*%
%TO.N,/LED4*%
X148070000Y-114565000D03*
%TO.P,U2,16,IO2*%
%TO.N,/LED3*%
X170930000Y-114565000D03*
%TO.P,U2,17,IO1*%
%TO.N,/LED2*%
X170930000Y-112025000D03*
%TO.P,U2,18,IO0*%
%TO.N,/LED1*%
X170930000Y-109485000D03*
%TO.P,U2,19,GND*%
%TO.N,GND*%
X170930000Y-106945000D03*
%TO.P,U2,20*%
%TO.N,N/C*%
X170930000Y-104405000D03*
%TO.P,U2,21*%
X170930000Y-101865000D03*
%TO.P,U2,22*%
X170930000Y-99325000D03*
%TO.P,U2,23*%
X170930000Y-96785000D03*
%TO.P,U2,24*%
X170930000Y-94245000D03*
%TO.P,U2,25*%
X170930000Y-91705000D03*
%TO.P,U2,26*%
X170930000Y-89165000D03*
%TO.P,U2,27*%
X170930000Y-86625000D03*
%TO.P,U2,28*%
X170930000Y-84085000D03*
%TO.P,U2,29*%
X170930000Y-81545000D03*
%TO.P,U2,30*%
X170930000Y-79005000D03*
%TD*%
D22*
%TO.P,C1,1*%
%TO.N,GNDBT*%
X148000000Y-54500000D03*
D12*
%TO.P,C1,2*%
%TO.N,+3.6V*%
X148000000Y-57000000D03*
%TD*%
%TO.P,R4,1*%
%TO.N,/Siren*%
X130000000Y-77500000D03*
%TO.P,R4,2*%
%TO.N,+3.6V*%
X130000000Y-67340000D03*
%TD*%
D23*
%TO.N,GND*%
X155690000Y-106945000D02*
X170930000Y-106945000D01*
X148070000Y-99325000D02*
X155690000Y-106945000D01*
%TD*%
M02*
