%TF.GenerationSoftware,KiCad,Pcbnew,9.0.6*%
%TF.CreationDate,2025-12-27T01:17:39+02:00*%
%TF.ProjectId,StrikaballMultifunctionalDevice,53747269-6b61-4626-916c-6c4d756c7469,rev?*%
%TF.SameCoordinates,Original*%
%TF.FileFunction,Copper,L1,Top*%
%TF.FilePolarity,Positive*%
%FSLAX46Y46*%
G04 Gerber Fmt 4.6, Leading zero omitted, Abs format (unit mm)*
G04 Created by KiCad (PCBNEW 9.0.6) date 2025-12-27 01:17:39*
%MOMM*%
%LPD*%
G01*
G04 APERTURE LIST*
G04 Aperture macros list*
%AMRoundRect*
0 Rectangle with rounded corners*
0 $1 Rounding radius*
0 $2 $3 $4 $5 $6 $7 $8 $9 X,Y pos of 4 corners*
0 Add a 4 corners polygon primitive as box body*
4,1,4,$2,$3,$4,$5,$6,$7,$8,$9,$2,$3,0*
0 Add four circle primitives for the rounded corners*
1,1,$1+$1,$2,$3*
1,1,$1+$1,$4,$5*
1,1,$1+$1,$6,$7*
1,1,$1+$1,$8,$9*
0 Add four rect primitives between the rounded corners*
20,1,$1+$1,$2,$3,$4,$5,0*
20,1,$1+$1,$4,$5,$6,$7,0*
20,1,$1+$1,$6,$7,$8,$9,0*
20,1,$1+$1,$8,$9,$2,$3,0*%
G04 Aperture macros list end*
%TA.AperFunction,NonConductor*%
%ADD10C,0.200000*%
%TD*%
%TA.AperFunction,ComponentPad*%
%ADD11RoundRect,0.249999X-1.250001X1.250001X-1.250001X-1.250001X1.250001X-1.250001X1.250001X1.250001X0*%
%TD*%
%TA.AperFunction,ComponentPad*%
%ADD12C,3.000000*%
%TD*%
%TA.AperFunction,ComponentPad*%
%ADD13C,1.600000*%
%TD*%
%TA.AperFunction,ComponentPad*%
%ADD14O,2.900000X1.700000*%
%TD*%
%TA.AperFunction,ComponentPad*%
%ADD15R,1.800000X1.800000*%
%TD*%
%TA.AperFunction,ComponentPad*%
%ADD16C,1.800000*%
%TD*%
%TA.AperFunction,ComponentPad*%
%ADD17R,0.850000X0.850000*%
%TD*%
%TA.AperFunction,ComponentPad*%
%ADD18C,0.850000*%
%TD*%
%TA.AperFunction,SMDPad,CuDef*%
%ADD19RoundRect,0.150000X0.150000X-0.587500X0.150000X0.587500X-0.150000X0.587500X-0.150000X-0.587500X0*%
%TD*%
%TA.AperFunction,ComponentPad*%
%ADD20C,2.000000*%
%TD*%
%TA.AperFunction,ComponentPad*%
%ADD21RoundRect,0.250000X0.650000X0.650000X-0.650000X0.650000X-0.650000X-0.650000X0.650000X-0.650000X0*%
%TD*%
%TA.AperFunction,ComponentPad*%
%ADD22R,1.500000X1.500000*%
%TD*%
%TA.AperFunction,ComponentPad*%
%ADD23C,1.500000*%
%TD*%
%TA.AperFunction,ComponentPad*%
%ADD24RoundRect,0.250000X-0.550000X0.550000X-0.550000X-0.550000X0.550000X-0.550000X0.550000X0.550000X0*%
%TD*%
%TA.AperFunction,Conductor*%
%ADD25C,0.200000*%
%TD*%
%TA.AperFunction,Conductor*%
%ADD26C,0.150000*%
%TD*%
G04 APERTURE END LIST*
D10*
X123500000Y-48500000D02*
X206500000Y-48500000D01*
X206500000Y-140500000D01*
X123500000Y-140500000D01*
X123500000Y-48500000D01*
D11*
%TO.P,BT1,1,+*%
%TO.N,+3.6V*%
X190500000Y-59550000D03*
D12*
%TO.P,BT1,2,-*%
%TO.N,GNDBT*%
X190500000Y-132450000D03*
%TD*%
D13*
%TO.P,R5,1*%
%TO.N,+3.6V*%
X190660000Y-54500000D03*
%TO.P,R5,2*%
%TO.N,Net-(SW3-A)*%
X180500000Y-54500000D03*
%TD*%
D14*
%TO.P,SW3,1,A*%
%TO.N,Net-(SW3-A)*%
X164330000Y-57500000D03*
X176830000Y-57500000D03*
%TO.P,SW3,2,B*%
%TO.N,+3.3V*%
X164330000Y-62500000D03*
X176830000Y-62500000D03*
%TD*%
D15*
%TO.P,D4,1,K*%
%TO.N,Net-(D1-K)*%
X145500000Y-131500000D03*
D16*
%TO.P,D4,2,A*%
%TO.N,/LED4*%
X148040000Y-131500000D03*
%TD*%
D13*
%TO.P,R3,1*%
%TO.N,/Igniter*%
X137500000Y-77500000D03*
%TO.P,R3,2*%
%TO.N,+3.6V*%
X137500000Y-67340000D03*
%TD*%
D17*
%TO.P,U1,1,VCC*%
%TO.N,Net-(Q1-D)*%
X138500000Y-51500000D03*
D18*
%TO.P,U1,2,GND*%
%TO.N,GNDBT*%
X139500000Y-51500000D03*
%TD*%
D13*
%TO.P,R2,1*%
%TO.N,Net-(U2-IO10)*%
X139000000Y-97080000D03*
%TO.P,R2,2*%
%TO.N,+3.3V*%
X139000000Y-86920000D03*
%TD*%
D19*
%TO.P,Q1,1,G*%
%TO.N,+3.6V*%
X137550000Y-59937500D03*
%TO.P,Q1,2,S*%
X139450000Y-59937500D03*
%TO.P,Q1,3,D*%
%TO.N,Net-(Q1-D)*%
X138500000Y-58062500D03*
%TD*%
D13*
%TO.P,R1,1*%
%TO.N,Net-(D1-K)*%
X164920000Y-137500000D03*
%TO.P,R1,2*%
%TO.N,GND*%
X175080000Y-137500000D03*
%TD*%
D20*
%TO.P,SW1,1,1*%
%TO.N,GND*%
X127250000Y-94250000D03*
X133750000Y-94250000D03*
%TO.P,SW1,2,2*%
%TO.N,Net-(U2-IO9)*%
X127250000Y-98750000D03*
X133750000Y-98750000D03*
%TD*%
D15*
%TO.P,D1,1,K*%
%TO.N,Net-(D1-K)*%
X173000000Y-131500000D03*
D16*
%TO.P,D1,2,A*%
%TO.N,/LED1*%
X175540000Y-131500000D03*
%TD*%
D17*
%TO.P,U3,1,VCC*%
%TO.N,Net-(Q2-D)*%
X131000000Y-51500000D03*
D18*
%TO.P,U3,2,GND*%
%TO.N,GNDBT*%
X132000000Y-51500000D03*
%TD*%
D13*
%TO.P,R6,1*%
%TO.N,Net-(U2-IO9)*%
X143500000Y-97000000D03*
%TO.P,R6,2*%
%TO.N,+3.3V*%
X143500000Y-86840000D03*
%TD*%
D17*
%TO.P,U4,1,VIN*%
%TO.N,+3.3V*%
X127000000Y-85000000D03*
D18*
%TO.P,U4,2,GND*%
%TO.N,GND*%
X127000000Y-86000000D03*
%TO.P,U4,3,Data*%
%TO.N,/PIR*%
X127000000Y-87000000D03*
%TD*%
D20*
%TO.P,SW2,1,1*%
%TO.N,GND*%
X133750000Y-108750000D03*
X127250000Y-108750000D03*
%TO.P,SW2,2,2*%
%TO.N,Net-(U2-IO10)*%
X133750000Y-104250000D03*
X127250000Y-104250000D03*
%TD*%
D15*
%TO.P,D6,1,K*%
%TO.N,Net-(D1-K)*%
X151000000Y-131500000D03*
D16*
%TO.P,D6,2,A*%
%TO.N,/LED6*%
X153540000Y-131500000D03*
%TD*%
D21*
%TO.P,D7,1,K*%
%TO.N,GNDBT*%
X190580000Y-137500000D03*
D16*
%TO.P,D7,2,A*%
%TO.N,GND*%
X180420000Y-137500000D03*
%TD*%
D15*
%TO.P,D3,1,K*%
%TO.N,Net-(D1-K)*%
X162000000Y-131500000D03*
D16*
%TO.P,D3,2,A*%
%TO.N,/LED3*%
X164540000Y-131500000D03*
%TD*%
D19*
%TO.P,Q2,1,G*%
%TO.N,+3.6V*%
X130050000Y-59937500D03*
%TO.P,Q2,2,S*%
X131950000Y-59937500D03*
%TO.P,Q2,3,D*%
%TO.N,Net-(Q2-D)*%
X131000000Y-58062500D03*
%TD*%
D15*
%TO.P,D2,1,K*%
%TO.N,Net-(D1-K)*%
X167500000Y-131500000D03*
D16*
%TO.P,D2,2,A*%
%TO.N,/LED2*%
X170040000Y-131500000D03*
%TD*%
D15*
%TO.P,D5,1,K*%
%TO.N,Net-(D1-K)*%
X156500000Y-131500000D03*
D16*
%TO.P,D5,2,A*%
%TO.N,/LED5*%
X159040000Y-131500000D03*
%TD*%
D22*
%TO.P,U2,1,3V3*%
%TO.N,+3.3V*%
X148070000Y-79005000D03*
D23*
%TO.P,U2,2,EN*%
%TO.N,unconnected-(U2-EN-Pad2)*%
X148070000Y-81545000D03*
%TO.P,U2,3,IO4*%
%TO.N,/LED5*%
X148070000Y-84085000D03*
%TO.P,U2,4,IO5*%
%TO.N,/LED6*%
X148070000Y-86625000D03*
%TO.P,U2,5,IO6*%
%TO.N,/Igniter*%
X148070000Y-89165000D03*
%TO.P,U2,6,IO7*%
%TO.N,/Siren*%
X148070000Y-91705000D03*
%TO.P,U2,7,IO8*%
%TO.N,/PIR*%
X148070000Y-94245000D03*
%TO.P,U2,8,IO9*%
%TO.N,Net-(U2-IO9)*%
X148070000Y-96785000D03*
%TO.P,U2,9,GND*%
%TO.N,GND*%
X148070000Y-99325000D03*
%TO.P,U2,10,IO10*%
%TO.N,Net-(U2-IO10)*%
X148070000Y-101865000D03*
%TO.P,U2,11,IO20/RXD*%
%TO.N,unconnected-(U2-IO20{slash}RXD-Pad11)*%
X148070000Y-104405000D03*
%TO.P,U2,12,IO21/TXD*%
%TO.N,unconnected-(U2-IO21{slash}TXD-Pad12)*%
X148070000Y-106945000D03*
%TO.P,U2,13,IO18*%
%TO.N,unconnected-(U2-IO18-Pad13)*%
X148070000Y-109485000D03*
%TO.P,U2,14,IO19*%
%TO.N,unconnected-(U2-IO19-Pad14)*%
X148070000Y-112025000D03*
%TO.P,U2,15,IO3*%
%TO.N,/LED4*%
X148070000Y-114565000D03*
%TO.P,U2,16,IO2*%
%TO.N,/LED3*%
X170930000Y-114565000D03*
%TO.P,U2,17,IO1*%
%TO.N,/LED2*%
X170930000Y-112025000D03*
%TO.P,U2,18,IO0*%
%TO.N,/LED1*%
X170930000Y-109485000D03*
%TO.P,U2,19,GND*%
%TO.N,GND*%
X170930000Y-106945000D03*
%TO.P,U2,20*%
%TO.N,N/C*%
X170930000Y-104405000D03*
%TO.P,U2,21*%
X170930000Y-101865000D03*
%TO.P,U2,22*%
X170930000Y-99325000D03*
%TO.P,U2,23*%
X170930000Y-96785000D03*
%TO.P,U2,24*%
X170930000Y-94245000D03*
%TO.P,U2,25*%
X170930000Y-91705000D03*
%TO.P,U2,26*%
X170930000Y-89165000D03*
%TO.P,U2,27*%
X170930000Y-86625000D03*
%TO.P,U2,28*%
X170930000Y-84085000D03*
%TO.P,U2,29*%
X170930000Y-81545000D03*
%TO.P,U2,30*%
X170930000Y-79005000D03*
%TD*%
D24*
%TO.P,C1,1*%
%TO.N,GNDBT*%
X148000000Y-54500000D03*
D13*
%TO.P,C1,2*%
%TO.N,+3.6V*%
X148000000Y-57000000D03*
%TD*%
%TO.P,R4,1*%
%TO.N,/Siren*%
X130000000Y-77500000D03*
%TO.P,R4,2*%
%TO.N,+3.6V*%
X130000000Y-67340000D03*
%TD*%
D25*
%TO.N,GNDBT*%
X203500000Y-135000000D02*
X201000000Y-137500000D01*
X139924999Y-51075001D02*
X148000000Y-51075001D01*
X139375040Y-50774000D02*
X139500000Y-50898960D01*
X148000000Y-51075001D02*
X197575001Y-51075001D01*
X139500000Y-50898960D02*
X139500000Y-51500000D01*
X148000000Y-54500000D02*
X148000000Y-51075001D01*
X201000000Y-137500000D02*
X190580000Y-137500000D01*
X139500000Y-51500000D02*
X139924999Y-51075001D01*
X190500000Y-132450000D02*
X190500000Y-137420000D01*
X190500000Y-137420000D02*
X190580000Y-137500000D01*
X203500000Y-57000000D02*
X203500000Y-135000000D01*
X132000000Y-51500000D02*
X132726000Y-50774000D01*
X197575001Y-51075001D02*
X203500000Y-57000000D01*
X132726000Y-50774000D02*
X139375040Y-50774000D01*
%TO.N,+3.3V*%
X155500000Y-62500000D02*
X148000000Y-70000000D01*
D26*
X127000000Y-78942950D02*
X127000000Y-85000000D01*
D25*
X164330000Y-62500000D02*
X155500000Y-62500000D01*
X143420000Y-86920000D02*
X143500000Y-86840000D01*
X143500000Y-86840000D02*
X143500000Y-83575000D01*
X148070000Y-79005000D02*
X145464000Y-76399000D01*
X143500000Y-83575000D02*
X148070000Y-79005000D01*
X164330000Y-62500000D02*
X176830000Y-62500000D01*
X139000000Y-86920000D02*
X143420000Y-86920000D01*
X145464000Y-76399000D02*
X129543950Y-76399000D01*
X129543950Y-76399000D02*
X127000000Y-78942950D01*
X148000000Y-70000000D02*
X148070000Y-70070000D01*
X148070000Y-70070000D02*
X148070000Y-79005000D01*
%TO.N,GND*%
X149000000Y-95500000D02*
X149500000Y-96000000D01*
X149500000Y-97895000D02*
X148070000Y-99325000D01*
X133750000Y-94250000D02*
X144750000Y-94250000D01*
X149500000Y-96000000D02*
X149500000Y-97895000D01*
X132449000Y-107449000D02*
X133750000Y-108750000D01*
X175080000Y-137500000D02*
X180420000Y-137500000D01*
X133750000Y-94250000D02*
X132449000Y-95551000D01*
X126274000Y-93274000D02*
X127250000Y-94250000D01*
X126274000Y-86699280D02*
X126274000Y-93274000D01*
X132449000Y-95551000D02*
X132449000Y-107449000D01*
X144750000Y-94250000D02*
X146000000Y-95500000D01*
X180420000Y-137500000D02*
X178500000Y-135580000D01*
X127000000Y-86000000D02*
X126973280Y-86000000D01*
X178500000Y-135580000D02*
X178500000Y-114515000D01*
X126973280Y-86000000D02*
X126274000Y-86699280D01*
X146000000Y-95500000D02*
X149000000Y-95500000D01*
X178500000Y-114515000D02*
X170930000Y-106945000D01*
%TO.N,/LED1*%
X175540000Y-114095000D02*
X175540000Y-131500000D01*
X170930000Y-109485000D02*
X175540000Y-114095000D01*
%TO.N,Net-(D1-K)*%
X162000000Y-135000000D02*
X164000000Y-135000000D01*
X156500000Y-131500000D02*
X156500000Y-135000000D01*
X148000000Y-135000000D02*
X151000000Y-135000000D01*
X167500000Y-131500000D02*
X167500000Y-135000000D01*
X164000000Y-135000000D02*
X164000000Y-136580000D01*
X145500000Y-131500000D02*
X145500000Y-132500000D01*
X164000000Y-136580000D02*
X164920000Y-137500000D01*
X167500000Y-135000000D02*
X170500000Y-135000000D01*
X173000000Y-131500000D02*
X173000000Y-132500000D01*
X173000000Y-132500000D02*
X170500000Y-135000000D01*
X162000000Y-131500000D02*
X162000000Y-135000000D01*
X151000000Y-135000000D02*
X156500000Y-135000000D01*
X151000000Y-131500000D02*
X151000000Y-135000000D01*
X164000000Y-135000000D02*
X167500000Y-135000000D01*
X156500000Y-135000000D02*
X162000000Y-135000000D01*
X145500000Y-132500000D02*
X148000000Y-135000000D01*
%TO.N,/LED2*%
X175000000Y-126540000D02*
X170040000Y-131500000D01*
X170930000Y-112025000D02*
X175000000Y-116095000D01*
X175000000Y-116095000D02*
X175000000Y-126540000D01*
%TO.N,/LED3*%
X168540000Y-127500000D02*
X164540000Y-131500000D01*
X171500000Y-127500000D02*
X168540000Y-127500000D01*
X174500000Y-124500000D02*
X171500000Y-127500000D01*
X174500000Y-118135000D02*
X174500000Y-124500000D01*
X170930000Y-114565000D02*
X174500000Y-118135000D01*
%TO.N,/LED4*%
X148070000Y-114565000D02*
X148070000Y-131470000D01*
X148070000Y-131470000D02*
X148040000Y-131500000D01*
%TO.N,/LED5*%
X159040000Y-95055000D02*
X159040000Y-131500000D01*
X148070000Y-84085000D02*
X159040000Y-95055000D01*
%TO.N,/LED6*%
X153540000Y-131500000D02*
X153540000Y-92095000D01*
X153540000Y-92095000D02*
X148070000Y-86625000D01*
%TO.N,Net-(Q1-D)*%
X138500000Y-51500000D02*
X138500000Y-58062500D01*
%TO.N,Net-(Q2-D)*%
X131000000Y-51500000D02*
X131000000Y-58062500D01*
%TO.N,Net-(U2-IO10)*%
X139000000Y-101865000D02*
X136135000Y-101865000D01*
X136135000Y-101865000D02*
X133750000Y-104250000D01*
X143785000Y-101865000D02*
X148070000Y-101865000D01*
X143785000Y-101865000D02*
X139000000Y-101865000D01*
X139000000Y-97080000D02*
X139000000Y-101865000D01*
%TO.N,/Igniter*%
X137500000Y-77500000D02*
X137500000Y-86977050D01*
X137500000Y-86977050D02*
X139687950Y-89165000D01*
X139687950Y-89165000D02*
X148070000Y-89165000D01*
%TO.N,/Siren*%
X130000000Y-80044150D02*
X141660850Y-91705000D01*
X141660850Y-91705000D02*
X148070000Y-91705000D01*
X130000000Y-77500000D02*
X130000000Y-80044150D01*
%TO.N,Net-(SW3-A)*%
X177500000Y-57500000D02*
X176830000Y-57500000D01*
X164330000Y-57500000D02*
X176830000Y-57500000D01*
X180500000Y-54500000D02*
X177500000Y-57500000D01*
%TO.N,/PIR*%
X132949000Y-92949000D02*
X127000000Y-87000000D01*
X148070000Y-94245000D02*
X146774000Y-92949000D01*
X146774000Y-92949000D02*
X132949000Y-92949000D01*
%TO.N,Net-(U2-IO9)*%
X142479000Y-95979000D02*
X136521000Y-95979000D01*
X136521000Y-95979000D02*
X133750000Y-98750000D01*
X147855000Y-97000000D02*
X148070000Y-96785000D01*
X143500000Y-97000000D02*
X142479000Y-95979000D01*
X143500000Y-97000000D02*
X147855000Y-97000000D01*
%TO.N,+3.6V*%
X133500000Y-62500000D02*
X133500000Y-60000000D01*
X140500000Y-63000000D02*
X143500000Y-60000000D01*
X132500000Y-67000000D02*
X135500000Y-70000000D01*
X130050000Y-59937500D02*
X130050000Y-61050000D01*
X130000000Y-61100000D02*
X130000000Y-63500000D01*
X135500000Y-70000000D02*
X140500000Y-70000000D01*
X187660000Y-51500000D02*
X190660000Y-54500000D01*
X132500000Y-63500000D02*
X132500000Y-67000000D01*
X143437500Y-59937500D02*
X139450000Y-59937500D01*
X190660000Y-59390000D02*
X190500000Y-59550000D01*
X130050000Y-61050000D02*
X130000000Y-61100000D01*
X137550000Y-67290000D02*
X137500000Y-67340000D01*
X154500000Y-60000000D02*
X163000000Y-51500000D01*
X140000000Y-63500000D02*
X140500000Y-63000000D01*
X133437500Y-59937500D02*
X131950000Y-59937500D01*
X140500000Y-70000000D02*
X140500000Y-63000000D01*
X137550000Y-59937500D02*
X137550000Y-63500000D01*
X130000000Y-63500000D02*
X132500000Y-63500000D01*
X130000000Y-63500000D02*
X130000000Y-67340000D01*
X148000000Y-60000000D02*
X154500000Y-60000000D01*
X148000000Y-57000000D02*
X148000000Y-60000000D01*
X132500000Y-63500000D02*
X133500000Y-62500000D01*
X137550000Y-63500000D02*
X140000000Y-63500000D01*
X143500000Y-60000000D02*
X143437500Y-59937500D01*
X137550000Y-63500000D02*
X137550000Y-67290000D01*
X133500000Y-60000000D02*
X133437500Y-59937500D01*
X163000000Y-51500000D02*
X187660000Y-51500000D01*
X143500000Y-60000000D02*
X148000000Y-60000000D01*
X190660000Y-54500000D02*
X190660000Y-59390000D01*
%TD*%
M02*
